inDegrees=no
num_controls=7
num_derivatives=13
num_iterations=167
num_multipliers=7
num_parameters=0
num_slacks=7
num_states=26
objective=5.957636
objective_accelerations=0.546983
objective_balance=0.062980
objective_effort=0.465633
objective_height=4.811816
objective_ligament=0.070226
solver_duration=1745.656275
status=Solve_Succeeded
success=true
DataType=double
version=3
OpenSimVersion=4.4-2022-07-23-0e9fedc
endheader
time	/jointset/ground_pelvis/pelvis_tilt/value	/jointset/ground_pelvis/pelvis_tx/value	/jointset/ground_pelvis/pelvis_ty/value	/jointset/hip_l/hip_flexion_l/value	/jointset/hip_l/hip_adduction_l/value	/jointset/hip_l/hip_rotation_l/value	/jointset/back/lumbar_extension/value	/jointset/patellofemoral_l/patellar_flexion_l/value	/jointset/knee_l/knee_flexion_l/value	/jointset/knee_l/knee_adduction_l/value	/jointset/knee_l/knee_rotation_l/value	/jointset/ankle_l/ankle_angle_l/value	/jointset/subtalar_l/subtalar_angle_l/value	/jointset/ground_pelvis/pelvis_tilt/speed	/jointset/ground_pelvis/pelvis_tx/speed	/jointset/ground_pelvis/pelvis_ty/speed	/jointset/hip_l/hip_flexion_l/speed	/jointset/hip_l/hip_adduction_l/speed	/jointset/hip_l/hip_rotation_l/speed	/jointset/back/lumbar_extension/speed	/jointset/patellofemoral_l/patellar_flexion_l/speed	/jointset/knee_l/knee_flexion_l/speed	/jointset/knee_l/knee_adduction_l/speed	/jointset/knee_l/knee_rotation_l/speed	/jointset/ankle_l/ankle_angle_l/speed	/jointset/subtalar_l/subtalar_angle_l/speed	/forceset/tau_hip_flexion_l	/forceset/tau_hip_adduction_l	/forceset/tau_hip_rotation_l	/forceset/tau_knee_flexion_l	/forceset/tau_ankle_angle_l	/forceset/tau_subtalar_angle_l	/forceset/tau_lumbar_extension	lambda_cid13_p0	lambda_cid13_p1	lambda_cid13_p2	lambda_cid13_p3	lambda_cid13_p4	lambda_cid13_p5	lambda_cid14_p0	/jointset/ground_pelvis/pelvis_tilt/accel	/jointset/ground_pelvis/pelvis_tx/accel	/jointset/ground_pelvis/pelvis_ty/accel	/jointset/hip_l/hip_flexion_l/accel	/jointset/hip_l/hip_adduction_l/accel	/jointset/hip_l/hip_rotation_l/accel	/jointset/back/lumbar_extension/accel	/jointset/patellofemoral_l/patellar_flexion_l/accel	/jointset/knee_l/knee_flexion_l/accel	/jointset/knee_l/knee_adduction_l/accel	/jointset/knee_l/knee_rotation_l/accel	/jointset/ankle_l/ankle_angle_l/accel	/jointset/subtalar_l/subtalar_angle_l/accel	gamma_cid13_p0	gamma_cid13_p1	gamma_cid13_p2	gamma_cid13_p3	gamma_cid13_p4	gamma_cid13_p5	gamma_cid14_p0
0	-0.03682269391224191	0.05667757318023552	0.9203415908837796	0.3085811930696054	-0.295640462481973	-0.3016070969485136	-0.3879500408040475	0.2499276582270938	0.249927658227084	-0.1745329195889729	-0.174532793103531	-0.0008036543073733089	0.0004376155973521538	0	0	0	0	0	0	0	0	0	0	0	0	0	0.0822874877577042	-0.06691265218067936	-0.02433805738354279	-0.2800088135252865	0.2552321091500546	-0.01562021284800121	0.001641459802810248	38.60727229811088	-1.996093062691361	2.17136204908806	-13.67499307662751	-627.1343878421266	-79.70449101312455	-23.1969578194529	-0.5718205904257633	-1.505706168381112	-0.835568499235212	8.268585943514021	-0.8504915369727447	3.387408578081713	-6.957407755948693	9.649069111738974	9.649069111738932	1.346544953044411	-0.07246217591141033	2.53526125687103	-0.04613510408668026	-9.020198140904094e-09	1.666144478467757e-07	7.048665917221411e-08	1.477972245957852e-09	8.633656709095407e-08	-1.402007415733951e-08	5.118234869675729e-09
0.01	-0.0368482208571739	0.05660346204614794	0.9203007455490898	0.308984029869431	-0.2956830246983722	-0.3014366774198798	-0.388296570826025	0.2504004557376802	0.2504004557376388	-0.1744691677304924	-0.1745324800212041	-0.0006795509480245493	0.000434336464603919	-0.005098248803972931	-0.01472088504627769	-0.00813925912070791	0.08017342882848662	-0.008466967597995657	0.0339212951152605	-0.06884786438025288	0.09411836855936458	0.09411836855936469	0.01268538114720516	6.547558755530967e-05	0.02474260813127825	-0.0006343716422210607	0.07715649716442458	-0.07537429254064132	-0.02358919458544171	-0.2755833947577455	0.2469772644228599	-0.004019946028749329	0.006456007991580952	36.27683181092817	-6.569428093327632	2.835805315713283	-13.53019951530205	-629.6713915861721	-88.92746366433953	-23.20238169709977	-0.4777642672540329	-1.44007811076558	-0.7986161785928737	7.832624836201293	-0.8380170531916799	3.370096752956289	-6.779754777265987	9.227049671538555	9.227049671538612	1.219823028462592	0.04648727591066495	2.432054202755387	-0.06890449640080377	-3.954888392070362e-08	1.631175237967214e-07	1.533287188273122e-07	2.949588062038555e-08	-2.909501987171899e-08	-7.343489434772771e-08	-4.020786775691065e-09
0.02	-0.03692451773851375	0.05638518237399544	0.9201794053111723	0.3101767816543073	-0.2958089001271471	-0.3009319235851586	-0.3893178352914393	0.2518012027225149	0.2518012027225227	-0.1742805043939744	-0.1745314252133084	-0.0003103627850629219	0.0004253503550112898	-0.01015398728280443	-0.02883370761298194	-0.01609898064557949	0.1579829970043975	-0.01666264247513787	0.06686686121882927	-0.1349468886886368	0.1855898948588664	0.1855898948588661	0.02498229561056584	0.0001483451679741215	0.04901696072252779	-0.001141395368882599	0.07202550657131872	-0.08383593290061395	-0.02284033178689654	-0.2711579759901924	0.2387224196956708	0.007580320790488025	0.01127055618048527	34.02083745598966	-11.15549445650652	3.501932485953625	-13.54750406065423	-631.1272106918444	-98.05659740975449	-23.2183133998723	-0.5633185253977199	-1.384093672466169	-0.7996609800679468	7.795813812998804	-0.796232992802149	3.192262775742987	-6.40763974157503	9.119700659766478	9.119700659766334	1.268851616275379	-0.06898337733912718	2.441610148865571	-0.02066552097477089	-7.007756970050314e-08	1.596205997466672e-07	2.361707784824103e-07	5.751378899481324e-08	-1.44526606834392e-07	-1.328497145381159e-07	-1.315980842105786e-08
0.03	-0.03705086590050261	0.05602875507288716	0.9199791794682796	0.312135825143469	-0.2960152147592854	-0.3001032697084189	-0.3909861793308462	0.2541037913877794	0.2541037913877874	-0.1739706324424852	-0.1745300932432646	0.0002992751699522553	0.0004121100956611264	-0.01506038418767992	-0.04235641412735283	-0.02393121430287077	0.2334063748399946	-0.02454367567955958	0.09870098908924375	-0.1982684156703141	0.2745077035279346	0.2745077035279357	0.03692717709277475	0.0001237277605252711	0.072835805246988	-0.001473636020544179	0.06498045416097517	-0.0758684729027216	-0.02187965363139934	-0.2643663463606704	0.2319286119093187	0.004874067552850138	0.01731710813425797	31.6747000890949	-9.673454848317967	3.3845363121876	-12.67060038686192	-632.6542653316222	-94.05933537875173	-23.24406814221392	-0.4460182677318244	-1.322046752070289	-0.7727878857459584	7.352690091093332	-0.7756061448650476	3.154521243174763	-6.226383648484032	8.71480343947638	8.714803439476746	1.147621396762805	0.03168604132133844	2.340797925366253	-0.03460244100149303	-9.324802411840202e-08	1.322187779656788e-07	3.047634150663023e-07	7.575328425967386e-08	-2.338251143789271e-07	-1.870686450216576e-07	-2.304501786240944e-08
0.04	-0.03722462163047699	0.05553996318440638	0.9197010746233766	0.3148365204754366	-0.2962986532555875	-0.2989611678628775	-0.3932741335344742	0.2572829546335346	0.2572829546335363	-0.1735432486796546	-0.1745288300544865	0.001144856834438161	0.0003965276090464014	-0.01963550088054768	-0.05530662508748592	-0.03167478104759716	0.306313365565731	-0.03208741530809518	0.1295564549790187	-0.2588689215328228	0.3609048109569802	0.360904810956983	0.04848465787774797	0.0001345889038381061	0.0962057026166509	-0.001609840821791327	0.05793540175060233	-0.06790101290483298	-0.02091897547591387	-0.2575747167311673	0.2251348041229568	0.002167814315205291	0.02336366008801275	29.3980628366276	-8.200271390630643	3.264768883235455	-11.95157366493901	-633.1833480741983	-89.96954114513029	-23.27876341361902	-0.4970624829964216	-1.269594561618361	-0.7819275975549661	7.292536391026616	-0.728774277624976	2.996530379614923	-5.863435517741445	8.615560411761958	8.615560411761868	1.191371476828164	-0.06188766718695732	2.351820717906389	0.01854164910816721	-1.162667624257462e-07	1.043240716953928e-07	3.730622491126437e-07	9.379116275938876e-08	-3.225847955437067e-07	-2.411804437586664e-07	-3.294561261914217e-08
0.05	-0.03744288418588462	0.05492461145061554	0.9193457896683983	0.3182541851739583	-0.2966557551218965	-0.2975159734474359	-0.3961542683291923	0.2613136324546116	0.2613136324546033	-0.1730022142378703	-0.1745277985446835	0.002221929896393395	0.0003806645666200438	-0.02397806397775138	-0.06765983483512848	-0.03938085424112477	0.376806199737313	-0.03926770931777744	0.1593121911013415	-0.3167103472482921	0.4447968235003134	0.4447968235002971	0.05964774350360211	8.198482273156263e-05	0.1191315974950965	-0.0015222954337666	0.05123600813852906	-0.06592700577545761	-0.01998449314523795	-0.2522104731011044	0.218066091518401	0.004688206819311122	0.02919102244259806	27.21561352714925	-8.952031763761022	3.429492608526669	-11.49401170776552	-633.9544988314085	-90.65728920533039	-23.32128508277068	-0.3970169953281992	-1.202582251330832	-0.7648090584083763	6.865637661085032	-0.7029377895735414	2.939508006285819	-5.677342574516635	8.210938881187182	8.210938881184436	1.067660906315731	0.02465492546454014	2.251374103069346	0.009872950878836348	-1.319970996291829e-07	5.354533631478322e-08	4.17239790397636e-07	1.050958536902767e-07	-3.920615327034352e-07	-2.827145129626579e-07	-4.219486013950869e-08
